<?xml version="1.0" encoding="utf-8"?>
<!-- Generator: Adobe Illustrator 16.0.3, SVG Export Plug-In . SVG Version: 6.00 Build 0)  -->
<!DOCTYPE svg PUBLIC "-//W3C//DTD SVG 1.1//EN" "http://www.w3.org/Graphics/SVG/1.1/DTD/svg11.dtd">
<svg version="1.1" id="Layer_1" xmlns="http://www.w3.org/2000/svg" xmlns:xlink="http://www.w3.org/1999/xlink" x="0px" y="0px"
	 width="115.754px" height="65px" viewBox="7.123 4 115.754 65" enable-background="new 7.123 4 115.754 65" xml:space="preserve">
<g>
	<path fill="#000" d="M62.478,31.75l0.035,0.103c0.187,0.554,0.301,1.622,0.301,2.863L62.8,37.608l0.029,0.646l-3.767-4.866
		c-0.48-0.619-0.66-0.89-1.08-1.612l-0.022-0.038l-0.658,0.029h-1.13l-0.352-0.013l-0.299,0.661h0.235
		c0.313,0,0.472,0.094,0.526,0.325c0.056,0.222,0.085,0.643,0.085,1.277l-0.013,4.901c0,0.309-0.039,0.611-0.074,0.878
		c-0.01,0.103-0.032,0.284-0.084,0.54l-0.016,0.093l0.441-0.034h0.687l0.425,0.039L57.7,40.325
		c-0.174-0.517-0.277-1.412-0.277-2.449l0.013-4.091l-0.017-0.394l4.428,5.656c0.387,0.496,0.583,0.768,1.054,1.49l0.022,0.032
		l1.08-0.014l-0.006-0.076c-0.057-0.656-0.073-0.896-0.105-1.471l-0.003-0.083c-0.013-0.306-0.013-0.549-0.013-0.741l0.013-3.455
		c0-0.464,0.003-0.832,0.007-1.1c0.003-0.157,0.005-0.28,0.005-0.371c0-0.271,0.019-0.552,0.058-0.884
		c0.013-0.122,0.039-0.291,0.088-0.532l0.017-0.09l-1.18,0.013L62.478,31.75z"/>
	<path fill="#000" d="M54.071,38.964c-0.235,0.226-0.35,0.31-0.563,0.406c-0.142,0.063-0.311,0.11-0.472,0.137
		c-0.31,0.057-0.657,0.084-1.116,0.084c-0.686,0-0.95-0.054-1.128-0.233c-0.129-0.143-0.174-0.31-0.201-0.761
		c-0.012-0.22-0.022-0.395-0.022-0.535v-1.768c0.435-0.021,0.625-0.021,0.938-0.021c0.378,0,0.767,0.012,1.191,0.039
		c0.123,0,0.3,0.009,0.539,0.033l0.09,0.012l-0.033-0.338l0.014-0.37l0.048-0.349l-0.287,0.028
		c-0.441,0.036-0.668,0.055-1.114,0.055h-1.376v-1.384l0.048-1.416c0.352-0.025,0.648-0.032,0.816-0.032
		c0.449,0,0.839,0.048,1.162,0.142c0.277,0.084,0.374,0.145,0.585,0.387l0.029,0.029l0.235-0.039l0.25-0.845l0.2-0.498l-0.442,0.014
		c-0.551,0.017-0.826,0.026-1.992,0.026h-1.693l-1.035-0.013l-0.293,0.661h0.235c0.313,0,0.471,0.094,0.523,0.326
		c0.057,0.222,0.083,0.622,0.083,1.254l-0.012,4.028c0,1.106-0.007,1.218-0.085,1.771c-0.012,0.118-0.035,0.305-0.07,0.544
		l-0.012,0.083l1.289-0.025l1.629,0.025c0.642,0.013,1.068,0.021,1.292,0.024l0.181,0.001c0.074,0,0.183,0.006,0.326,0.02
		l0.21,0.007l0.205-0.974l0.126-0.452l-0.261-0.122L54.071,38.964z"/>
	<path fill="#000" d="M79.724,38.926l-0.032,0.038c-0.239,0.226-0.354,0.31-0.573,0.405c-0.136,0.064-0.303,0.11-0.463,0.136
		c-0.315,0.058-0.659,0.084-1.117,0.084c-0.689,0-0.955-0.054-1.128-0.233c-0.136-0.141-0.175-0.309-0.201-0.741l-0.005-0.039
		c-0.013-0.212-0.021-0.38-0.021-0.515v-1.768c0.433-0.022,0.627-0.022,0.938-0.022c0.379,0,0.771,0.013,1.191,0.038
		c0.123,0,0.304,0.01,0.542,0.032l0.084,0.013l-0.027-0.338l0.015-0.371l0.047-0.349l-0.286,0.029
		c-0.443,0.036-0.669,0.055-1.115,0.055h-1.374v-1.383l0.046-1.417c0.348-0.025,0.65-0.032,0.819-0.032
		c0.446,0,0.838,0.048,1.161,0.142c0.271,0.085,0.374,0.145,0.581,0.387l0.031,0.029l0.233-0.039l0.252-0.845l0.199-0.497
		l-0.438,0.013c-0.554,0.017-0.832,0.025-1.993,0.025h-1.694l-1.034-0.012l-0.296,0.661h0.231c0.316,0,0.472,0.094,0.529,0.325
		c0.054,0.223,0.084,0.623,0.084,1.255l-0.014,4.027c0,1.108-0.012,1.218-0.084,1.772c-0.012,0.116-0.037,0.303-0.076,0.543
		l-0.014,0.084l1.291-0.025l1.632,0.023c0.639,0.015,1.069,0.021,1.29,0.025l0.186,0.001c0.071,0,0.181,0.012,0.323,0.02
		l0.211,0.007l0.206-0.973l0.125-0.453L79.724,38.926z"/>
	<path fill="#000" d="M45.847,32.205c-0.549-0.291-1.158-0.412-2.174-0.438c-0.306-0.01-0.671-0.01-1.099-0.01
		c-0.248,0-0.573,0-0.9,0.006c-0.325,0.001-0.651,0.004-0.9,0.004h-1.127l-0.354-0.013l-0.302,0.661h0.238
		c0.314,0,0.472,0.094,0.525,0.326c0.057,0.226,0.083,0.636,0.083,1.255l-0.013,4.027c0,1.122-0.011,1.238-0.084,1.772
		c-0.01,0.116-0.037,0.303-0.072,0.542l-0.012,0.091l0.425-0.032h0.886c0.449,0,0.807,0.02,1.087,0.026
		c0.178,0.013,0.322,0.014,0.436,0.014c1.569,0,2.625-0.311,3.524-1.045c1.064-0.847,1.674-2.188,1.674-3.668
		C47.688,34.129,47,32.814,45.847,32.205 M42.745,39.582c-0.478,0-0.9-0.045-1.135-0.116c-0.106-0.025-0.194-0.077-0.271-0.16
		c-0.132-0.137-0.177-0.304-0.2-0.736l-0.006-0.11c-0.011-0.165-0.018-0.321-0.018-0.451l0.015-3.975l0.032-1.413l0.354-0.016
		c0.506-0.029,0.813-0.045,1.122-0.045c1.429,0,2.187,0.251,2.78,0.919c0.539,0.611,0.834,1.517,0.834,2.547
		C46.252,38.254,44.94,39.582,42.745,39.582"/>
	<path fill="#000" d="M12.126,31.425c-2.637,0-4.626,2.028-4.626,4.714c0,2.702,1.749,4.593,4.251,4.593
		c2.764,0,4.769-2.025,4.769-4.815C16.519,33.188,14.797,31.425,12.126,31.425 M12.027,39.885c-1.789,0-3.041-1.631-3.041-3.969
		c0-2.215,1.197-3.648,3.041-3.648c1.774,0,3.008,1.641,3.008,3.99C15.037,38.46,13.856,39.885,12.027,39.885"/>
	<path fill="#000" d="M69.031,31.792c-0.826,0-1.749-0.023-2.821-0.048l-0.782-0.017l-0.114,1.049l-0.031,0.345l0.265,0.016
		l0.022-0.02c0.213-0.2,0.316-0.271,0.538-0.364c0.363-0.148,0.703-0.194,1.508-0.203c0.078,0,0.169,0,0.272-0.003
		c0.13-0.004,0.284-0.01,0.459-0.01c0.006,0.129,0.007,0.244,0.011,0.349c0.002,0.148,0.002,0.271,0.014,0.364
		c0.01,0.38,0.01,0.622,0.01,0.745l-0.015,4.079c-0.009,1.078-0.009,1.188-0.085,1.723c-0.006,0.115-0.032,0.296-0.083,0.54
		l-0.015,0.093l0.453-0.034h0.883l0.419,0.039l-0.038-0.109c-0.161-0.498-0.227-1.142-0.227-2.289l0.013-4.038l0.047-1.46
		c0.908,0.013,1.116,0.022,1.495,0.075c0.187,0.025,0.348,0.061,0.501,0.119c0.229,0.081,0.331,0.155,0.558,0.374l0.026,0.022
		l0.242-0.017l0.201-0.883l0.168-0.5l-0.993,0.02C70.822,31.772,69.855,31.792,69.031,31.792"/>
	<path fill="#000" d="M36.856,38.034l0.014-4.004c0-0.645,0.01-1.097,0.02-1.306c0.012-0.207,0.039-0.499,0.077-0.901l0.007-0.09
		l-0.458,0.033h-1.131l-0.352-0.013l-0.3,0.661h0.236c0.315,0,0.471,0.094,0.526,0.326c0.057,0.225,0.083,0.622,0.083,1.254
		l-0.013,4.028c0,1.121-0.014,1.244-0.084,1.771c-0.013,0.118-0.038,0.305-0.075,0.544l-0.012,0.089l0.424-0.031h0.886l0.424,0.038
		l-0.037-0.108C36.924,39.803,36.856,39.139,36.856,38.034"/>
	<path fill="#000" d="M30.575,32.389c0.952,0,1.593,0.277,2.148,0.932l0.021,0.026h0.259l0.113-0.419l0.302-0.964l-0.067-0.022
		c-0.561-0.183-0.796-0.245-1.268-0.31c-0.364-0.051-0.695-0.074-1.034-0.074c-1.526,0-2.654,0.352-3.554,1.109
		c-0.983,0.838-1.547,2.08-1.547,3.411c0,1.745,0.905,3.326,2.304,4.034c0.616,0.304,1.405,0.47,2.283,0.47
		c0.384,0,0.875-0.032,1.255-0.09c0.282-0.045,0.505-0.077,1.089-0.227l0.042-0.012l0.12-0.421l0.261-0.747l-0.232-0.176
		l-0.042,0.032c-0.481,0.35-0.675,0.433-1.189,0.563c-0.427,0.102-0.764,0.146-1.072,0.146c-1.992,0-3.333-1.502-3.333-3.746
		C27.435,33.736,28.638,32.389,30.575,32.389"/>
	<path fill="#000" d="M22.374,32.389c0.952,0,1.594,0.277,2.149,0.932l0.022,0.026h0.258l0.109-0.419l0.31-0.964l-0.074-0.022
		c-0.561-0.183-0.792-0.245-1.267-0.31c-0.364-0.051-0.69-0.074-1.031-0.074c-1.526,0-2.654,0.352-3.554,1.109
		c-0.983,0.838-1.547,2.08-1.547,3.411c0,1.745,0.906,3.326,2.303,4.034c0.615,0.304,1.405,0.47,2.289,0.47
		c0.381,0,0.873-0.032,1.251-0.09c0.283-0.045,0.506-0.077,1.09-0.227l0.042-0.012l0.119-0.421l0.262-0.747l-0.232-0.176
		l-0.045,0.032c-0.479,0.35-0.674,0.433-1.191,0.563c-0.424,0.102-0.762,0.146-1.067,0.146c-1.992,0-3.333-1.502-3.333-3.746
		C19.235,33.736,20.438,32.389,22.374,32.389"/>
	<path fill="#000" d="M59.306,25.656c-0.239,0.229-0.361,0.315-0.58,0.413c-0.145,0.068-0.316,0.119-0.477,0.146
		c-0.323,0.058-0.675,0.083-1.15,0.083c-0.701,0-0.973-0.056-1.153-0.235c-0.136-0.148-0.181-0.319-0.207-0.761l-0.003-0.039
		c-0.009-0.219-0.019-0.39-0.019-0.529v-1.812c0.446-0.023,0.642-0.023,0.957-0.023c0.391,0,0.791,0.013,1.224,0.036
		c0.128,0,0.309,0.013,0.554,0.038l0.091,0.007l-0.032-0.342l0.014-0.38l0.05-0.354l-0.298,0.025
		c-0.455,0.039-0.681,0.055-1.142,0.055h-1.408v-1.418l0.048-1.448c0.361-0.025,0.668-0.031,0.839-0.031
		c0.458,0,0.861,0.051,1.188,0.147c0.285,0.084,0.384,0.148,0.603,0.393l0.027,0.029l0.241-0.039l0.254-0.866l0.207-0.507
		l-0.451,0.011c-0.568,0.019-0.848,0.028-2.044,0.028h-1.734l-1.058-0.013l-0.307,0.678h0.241c0.324,0,0.484,0.097,0.539,0.332
		c0.057,0.231,0.083,0.639,0.083,1.287l-0.013,4.129c0,1.133-0.01,1.25-0.084,1.811c-0.013,0.126-0.039,0.313-0.078,0.561
		l-0.013,0.087l1.323-0.022l1.672,0.022c0.655,0.007,1.094,0.017,1.322,0.022l0.185,0.003c0.077,0,0.19,0.006,0.336,0.016
		l0.215,0.013l0.209-1l0.13-0.465l-0.266-0.125L59.306,25.656z"/>
	<path fill="#000" d="M42.883,25.656c-0.242,0.229-0.361,0.315-0.58,0.413c-0.148,0.068-0.316,0.119-0.48,0.146
		c-0.322,0.058-0.674,0.083-1.148,0.083c-0.7,0-0.971-0.056-1.155-0.235c-0.131-0.148-0.18-0.319-0.202-0.78
		c-0.016-0.226-0.025-0.406-0.025-0.548v-1.813c0.444-0.023,0.641-0.023,0.96-0.023c0.387,0,0.787,0.013,1.222,0.036
		c0.126,0,0.308,0.013,0.552,0.038l0.093,0.007l-0.035-0.342l0.013-0.38l0.051-0.354l-0.292,0.025
		c-0.455,0.039-0.683,0.055-1.141,0.055h-1.41v-1.418l0.048-1.448c0.359-0.025,0.665-0.031,0.838-0.031
		c0.459,0,0.858,0.051,1.188,0.147c0.284,0.084,0.385,0.148,0.6,0.393l0.028,0.029l0.24-0.039l0.257-0.866l0.205-0.507l-0.451,0.011
		c-0.568,0.019-0.849,0.028-2.044,0.028h-1.734l-1.059-0.013l-0.303,0.678h0.239c0.323,0,0.484,0.097,0.539,0.332
		c0.057,0.231,0.086,0.639,0.086,1.287l-0.014,4.129c0,1.136-0.009,1.25-0.087,1.811c-0.012,0.126-0.035,0.313-0.074,0.561
		l-0.013,0.087l1.322-0.022l1.67,0.022c0.655,0.007,1.093,0.017,1.325,0.022l0.183,0.003c0.075,0,0.187,0.006,0.336,0.016
		l0.213,0.013l0.211-1l0.129-0.465l-0.267-0.125L42.883,25.656z"/>
	<path fill="#000" d="M50.876,18.771c-0.564-0.296-1.19-0.426-2.229-0.448c-0.313-0.014-0.688-0.014-1.125-0.014
		c-0.254,0-0.59,0.003-0.921,0.006c-0.332,0.003-0.667,0.006-0.923,0.006h-1.157l-0.365-0.014l-0.306,0.676h0.242
		c0.322,0,0.483,0.1,0.538,0.335c0.059,0.233,0.088,0.652,0.088,1.286l-0.013,4.128c0,1.148-0.014,1.27-0.088,1.812
		c-0.013,0.126-0.039,0.313-0.074,0.561l-0.016,0.091l0.439-0.029h0.911c0.456,0,0.824,0.012,1.111,0.025
		c0.18,0.006,0.332,0.013,0.448,0.013c1.608,0,2.689-0.319,3.614-1.07c1.087-0.868,1.714-2.239,1.714-3.763
		C52.763,20.745,52.06,19.394,50.876,18.771 M47.697,26.327c-0.488,0-0.921-0.039-1.164-0.109c-0.106-0.034-0.196-0.084-0.274-0.167
		c-0.136-0.146-0.182-0.317-0.206-0.758l-0.006-0.103c-0.011-0.168-0.019-0.333-0.019-0.468l0.013-4.075l0.037-1.448l0.359-0.016
		c0.519-0.029,0.831-0.044,1.151-0.044c1.466,0,2.241,0.257,2.85,0.941c0.548,0.628,0.852,1.555,0.852,2.611
		C51.289,24.969,49.948,26.327,47.697,26.327"/>
	<path fill="#000" d="M79.678,25.656c-0.244,0.231-0.36,0.315-0.58,0.413c-0.143,0.068-0.314,0.119-0.478,0.146
		c-0.321,0.058-0.676,0.083-1.148,0.083c-0.702,0-0.973-0.056-1.153-0.239c-0.135-0.145-0.182-0.316-0.206-0.776
		c-0.013-0.226-0.025-0.406-0.025-0.548v-1.813c0.445-0.023,0.64-0.023,0.961-0.023c0.392,0,0.787,0.013,1.226,0.036
		c0.123,0,0.309,0.013,0.548,0.038l0.096,0.007l-0.038-0.342l0.014-0.38l0.053-0.354l-0.292,0.025
		c-0.458,0.039-0.684,0.055-1.141,0.055h-1.412v-1.418l0.05-1.448c0.356-0.025,0.666-0.031,0.838-0.031
		c0.459,0,0.859,0.051,1.189,0.147c0.282,0.084,0.381,0.148,0.6,0.393l0.025,0.029l0.239-0.039l0.258-0.866l0.206-0.507
		l-0.452,0.011c-0.562,0.019-0.845,0.028-2.038,0.028h-1.74l-1.059-0.013l-0.304,0.678h0.24c0.322,0,0.484,0.097,0.54,0.332
		c0.059,0.231,0.085,0.641,0.085,1.287l-0.013,4.129c0,1.175-0.014,1.272-0.085,1.811c-0.014,0.126-0.04,0.313-0.078,0.561
		l-0.013,0.087l1.323-0.022l1.67,0.022c0.656,0.007,1.097,0.017,1.327,0.022l0.184,0.003c0.075,0,0.187,0.006,0.335,0.016
		l0.212,0.013l0.212-1l0.129-0.465l-0.265-0.125L79.678,25.656z"/>
	<path fill="#000" d="M71.25,18.771c-0.568-0.296-1.193-0.426-2.228-0.448c-0.314-0.014-0.69-0.014-1.126-0.014
		c-0.258,0-0.59,0.003-0.925,0.006c-0.334,0.003-0.667,0.006-0.921,0.006H64.89l-0.363-0.014l-0.305,0.676h0.241
		c0.323,0,0.484,0.1,0.54,0.335c0.057,0.236,0.086,0.643,0.086,1.286l-0.013,4.128c0,1.148-0.014,1.27-0.088,1.812
		c-0.012,0.123-0.038,0.307-0.074,0.561l-0.016,0.091l0.438-0.029h0.911c0.453,0,0.822,0.012,1.11,0.025
		c0.181,0.006,0.329,0.013,0.446,0.013c1.612,0,2.693-0.319,3.616-1.07c1.091-0.868,1.716-2.239,1.716-3.763
		C73.139,20.745,72.43,19.397,71.25,18.771 M68.07,26.327c-0.484,0-0.923-0.039-1.162-0.109c-0.108-0.034-0.199-0.091-0.277-0.167
		c-0.133-0.143-0.18-0.313-0.206-0.758l-0.005-0.123c-0.013-0.165-0.021-0.319-0.021-0.448l0.016-4.076l0.036-1.448l0.356-0.016
		c0.521-0.029,0.837-0.044,1.148-0.044c1.476,0,2.243,0.257,2.855,0.94c0.55,0.628,0.854,1.555,0.854,2.612
		C71.662,24.969,70.322,26.327,68.07,26.327"/>
	<path fill="#000" d="M33.784,21.802c-0.819-0.445-1.089-0.629-1.348-0.857c-0.255-0.235-0.387-0.542-0.387-0.89
		c0-0.751,0.555-1.235,1.418-1.235c0.7,0,1.119,0.212,1.538,0.787l0.026,0.038l0.25-0.039l0.252-0.871l0.165-0.416l-0.075-0.024
		c-0.639-0.216-0.893-0.273-1.367-0.309c-0.147-0.014-0.296-0.026-0.445-0.026c-1.763,0-2.947,1.009-2.947,2.509
		c0,0.586,0.21,1.125,0.594,1.522c0.341,0.344,0.521,0.46,1.608,1.052c0.719,0.392,1.049,0.631,1.307,0.95
		c0.197,0.241,0.303,0.553,0.303,0.88c0,0.832-0.707,1.463-1.643,1.463c-0.359,0-0.775-0.128-1.059-0.322
		c-0.219-0.143-0.325-0.271-0.534-0.601l-0.026-0.044l-0.269,0.058l-0.229,0.909l-0.154,0.497l0.064,0.02
		c0.619,0.23,0.854,0.277,1.347,0.324l0.081,0.004c0.143,0.013,0.275,0.022,0.4,0.022c1.876,0,3.237-1.187,3.237-2.816
		c0-0.525-0.158-1.006-0.454-1.393C35.099,22.567,34.792,22.347,33.784,21.802"/>
	<path fill="#000" d="M85.649,55.982l-0.612-0.496c-2.07-1.65-2.636-2.438-2.636-3.677c0-1.482,1.031-2.477,2.572-2.477
		c1.832,0,2.45,0.787,2.632,1.122c0.123,0.225,0.251,0.813,0.27,1.07c0.021,0.175,0.053,0.425,0.312,0.425
		c0.29,0,0.29-0.426,0.29-0.656c0-1.201,0.052-1.916,0.077-2.22c0.007-0.091,0.013-0.141,0.013-0.167
		c0-0.297-0.271-0.297-0.36-0.297c-0.154,0-0.31-0.02-0.736-0.111c-0.636-0.154-1.295-0.231-2.075-0.231
		c-2.807,0-4.689,1.691-4.689,4.198c0,1.529,0.491,2.967,2.908,4.998l0.987,0.831c1.948,1.645,2.483,2.497,2.483,3.948
		c0,1.424-1.033,2.863-3.011,2.863c-0.808,0-2.735-0.212-3.129-2.193c-0.059-0.299-0.059-0.606-0.059-0.801
		c0-0.128,0-0.393-0.289-0.393c-0.266,0-0.296,0.331-0.312,0.489c0,0.007-0.018,0.272-0.018,0.272
		c-0.039,0.45-0.096,1.219-0.096,2.134c0,0.595,0.019,0.774,0.412,0.974c0.838,0.425,1.82,0.627,3.006,0.627
		c1.335,0,2.515-0.337,3.398-0.974c1.424-1.032,1.93-2.663,1.93-3.851C88.914,59.64,88.379,58.188,85.649,55.982"/>
	<path fill="#000" d="M100.754,48.27c-3.496,0-5.585,1.683-6.72,3.087c-1.309,1.626-2.09,3.814-2.09,5.863
		c0,4.335,2.715,8.997,8.674,8.997c2.549,0,4.85-0.98,6.479-2.76c1.567-1.716,2.435-4.058,2.435-6.6
		C109.532,51.722,106.004,48.27,100.754,48.27 M101.218,65.083c-4.076,0-6.914-3.49-6.914-8.495c0-2.302,0.626-4.197,1.801-5.462
		c1.096-1.188,2.65-1.813,4.488-1.813c3.159,0,6.558,2.562,6.558,8.18C107.15,64.722,102.206,65.083,101.218,65.083"/>
	<path fill="#000" d="M96.432,25.936c-0.051-0.022-0.114-0.042-0.167-0.055c-0.122-0.032-0.258,0.068-0.29,0.155
		c-0.975,2.518-1.806,6.348-0.266,10.321c1.318,3.392,4.419,6.583,9.482,9.738c0.181,0.115,0.354,0.064,0.419-0.046
		c0.057-0.096,0.064-0.251-0.117-0.393c-4.146-3.269-10.819-10.141-8.898-19.435C96.613,26.133,96.543,25.979,96.432,25.936"/>
	<path fill="#000" d="M98.167,9.147c0.851-0.252,2.593-0.697,4.812-0.815l0.096-0.003l0.091-0.001l0.063-0.005h0.034
		c2.017-0.036,3.661,0.219,4.681,0.436c0.137,0.029,0.252-0.01,0.31-0.11c0.059-0.09,0.039-0.213-0.033-0.307
		c-0.043-0.051-0.192-0.129-0.192-0.129c-1.58-0.823-3.225-1.216-4.901-1.174c-0.007,0-0.147,0.007-0.147,0.007
		c-1.761,0.078-3.398,0.623-5.005,1.667c-0.116,0.077-0.167,0.226-0.116,0.335C97.896,9.13,97.994,9.201,98.167,9.147"/>
	<path fill="#000" d="M91.777,9.926c0.155,0.078,0.398,0.187,0.471,0.219c1.102,0.439,2.115,0.619,2.502,0.681l0.123,0.017
		c0.09,0.012,0.173,0.028,0.211,0.035c2.522,0.422,4.902,1.493,7.076,3.176c0.147,0.106,0.321,0.113,0.419,0.014
		c0.07-0.072,0.097-0.207-0.038-0.371c-1.891-2.293-4.07-3.696-6.481-4.181c-0.316-0.06-0.64-0.106-0.979-0.135
		c-0.04-0.007-0.163-0.013-0.251-0.016l-0.073-0.007c-0.562-0.039-1.187-0.139-1.863-0.307c-1.09-0.268-2.134-0.88-2.816-1.347
		c-0.254-0.172-0.375-0.09-0.416-0.046c-0.051,0.055-0.104,0.178,0.078,0.4c0.414,0.513,1.051,1.216,1.689,1.66
		C91.505,9.772,91.711,9.894,91.777,9.926"/>
	<path fill="#000" d="M104.056,13.65c-0.123,0.167-0.079,0.303-0.007,0.371c0.102,0.094,0.276,0.077,0.413-0.039
		c2.07-1.818,4.378-3.034,6.868-3.617c0.033-0.007,0.122-0.026,0.207-0.042l0.129-0.026c0.379-0.083,1.379-0.329,2.449-0.835
		c0.072-0.038,0.305-0.161,0.454-0.249c0.069-0.035,0.269-0.174,0.334-0.225c0.618-0.486,1.205-1.226,1.587-1.764
		c0.161-0.229,0.077-0.349,0.031-0.39c-0.096-0.087-0.265-0.062-0.387,0.059c-0.656,0.506-1.657,1.183-2.728,1.519
		c-0.664,0.206-1.285,0.35-1.845,0.422l-0.07,0.009c-0.091,0.012-0.212,0.026-0.253,0.033c-0.329,0.045-0.658,0.116-0.974,0.196
		C107.895,9.702,105.809,11.243,104.056,13.65"/>
	<path fill="#000" d="M103.553,16.324c-0.052-0.033-0.143-0.026-0.195,0.018c-0.482,0.437-2.739,2.542,0.13,5.005
		c0.032,0.025,0.174,0.017,0.201-0.013C106.185,18.549,104.089,16.694,103.553,16.324"/>
	<path fill="#000" d="M97.67,24.328c1.563-0.013,3.271-0.796,4.451-2.042c0.044-0.043,0.122-0.212,0.027-0.31
		c-0.021-0.029-0.067-0.06-0.111-0.084c-0.104-0.048-0.266,0.045-0.266,0.045c-1.452,0.99-4.332,2.299-7.273-0.042
		c-1.483-1.18-2.277-2.605-2.431-4.366c-0.077-0.857,0.012-1.761,0.264-2.689c0.104-0.369,0.251-0.675,0.387-0.943
		c0.044-0.089,0.086-0.173,0.121-0.251c0.007-0.026,0.014-0.055,0.016-0.071c0.012-0.068-0.032-0.165-0.097-0.2
		c-0.02-0.02-0.045-0.031-0.063-0.039c-0.072-0.033-0.168-0.006-0.213,0.039c-0.014,0.014-0.033,0.032-0.04,0.046
		c-0.264,0.396-0.483,0.783-0.669,1.189c-0.375,0.84-0.588,1.758-0.652,2.8c-0.13,2.054,0.311,3.735,1.265,4.86
		C93.506,23.599,95.433,24.354,97.67,24.328"/>
	<path fill="#000" d="M114.755,21.57c0.877-1.18,1.212-2.885,0.961-4.927c-0.13-1.038-0.401-1.938-0.839-2.758
		c-0.201-0.389-0.445-0.764-0.735-1.141c-0.012-0.016-0.032-0.036-0.046-0.044c-0.044-0.042-0.142-0.062-0.212-0.022
		c-0.02,0.01-0.044,0.022-0.063,0.036c-0.061,0.045-0.104,0.145-0.086,0.214c0.007,0.012,0.013,0.041,0.025,0.063
		c0.039,0.076,0.084,0.161,0.135,0.245c0.149,0.261,0.312,0.558,0.439,0.917c0.31,0.912,0.458,1.809,0.434,2.67
		c-0.048,1.77-0.757,3.241-2.169,4.508c-2.799,2.522-5.767,1.396-7.287,0.5c0,0-0.167-0.086-0.272-0.029
		c-0.037,0.022-0.076,0.055-0.108,0.093c-0.078,0.103,0.007,0.265,0.052,0.303c1.265,1.17,3.024,1.847,4.593,1.765
		C111.819,23.84,113.704,22.971,114.755,21.57"/>
	<path fill="#000" d="M99.379,13.689c-0.677-0.46-1.496-0.634-2.302-0.479c-0.807,0.155-1.503,0.616-1.968,1.3
		c-0.458,0.681-0.632,1.503-0.476,2.313c0.315,1.672,1.933,2.773,3.596,2.457c0.802-0.158,1.504-0.616,1.963-1.297
		c0.463-0.684,0.633-1.508,0.478-2.315C100.521,14.854,100.058,14.151,99.379,13.689 M99.471,17.484
		c-0.328,0.484-0.831,0.813-1.406,0.926c-1.187,0.229-2.34-0.557-2.565-1.757c-0.11-0.574,0.011-1.162,0.34-1.652
		c0.33-0.483,0.826-0.815,1.407-0.925c0.573-0.109,1.154,0.013,1.639,0.343c0.489,0.332,0.813,0.832,0.922,1.411
		C99.921,16.409,99.8,16.995,99.471,17.484"/>
	<path fill="#000" d="M97.438,15.105c-0.625,0.122-1.037,0.725-0.915,1.354c0.114,0.626,0.722,1.039,1.342,0.919
		c0.631-0.12,1.038-0.725,0.921-1.354C98.666,15.398,98.059,14.99,97.438,15.105"/>
	<path fill="#000" d="M108.982,14.748c-0.626,0.119-1.038,0.725-0.922,1.354c0.124,0.626,0.722,1.039,1.348,0.918
		c0.625-0.119,1.038-0.728,0.916-1.354C110.206,15.038,109.603,14.628,108.982,14.748"/>
	<path fill="#000" d="M109.382,12.799c-1.689-0.093-3.146,1.206-3.243,2.909c-0.096,1.699,1.2,3.161,2.895,3.257
		c1.69,0.097,3.146-1.209,3.243-2.909c0.04-0.825-0.231-1.615-0.779-2.231C110.949,13.209,110.195,12.848,109.382,12.799
		 M111.4,16.008c-0.07,1.212-1.109,2.144-2.32,2.077c-1.207-0.072-2.136-1.114-2.064-2.329c0.064-1.212,1.103-2.147,2.316-2.076
		c0.584,0.035,1.121,0.296,1.514,0.733C111.235,14.854,111.434,15.417,111.4,16.008"/>
	<path fill="#000" d="M113.167,64.998c9.692-14.156,10.119-24.843,8.772-31.314c-1.46-7.035-5.296-10.768-5.334-10.804
		c-0.085-0.084-0.225-0.093-0.329-0.017c-0.097,0.078-0.124,0.209-0.064,0.32c10.27,19.01-2.267,39.642-3.383,41.408
		c-0.025,0.041-0.052,0.077-0.079,0.119h0.002c0,0.001-0.002,0.003-0.004,0.004l0.209,0.138l-0.001,0.004
		c0.001-0.002,0.001-0.003,0.001-0.004l0.016,0.01L113.167,64.998z"/>
</g>
</svg>
